<svg style="background-color:#ffffff00" width="224" height="404" viewBox="0 0 224 404" xmlns="http://www.w3.org/2000/svg">
  <defs>
    <filter id="filamentglow" x="-100%" y="-100%" width="300%" height="300%">
      <feColorMatrix result="out" in="SourceGraphic" values="0 0 0 1 0 0 0 0 0.8235 0 0 0 0 0.302 0 0 0 0 1 0"/>
      <feMorphology result="out" in="out" operator="dilate" radius="10"/>
      <feGaussianBlur result="out" in="out" stdDeviation="15.5"/>
      <feBlend in="SourceGraphic" in2="out" result="Glow1"/>
    </filter>
    <radialGradient id="b" cx=".481" cy=".341" r=".351">
      <stop offset="0" stop-color="#FFF" stop-opacity="0"/>
      <stop offset=".52" stop-color="#FFF" stop-opacity="0"/>
      <stop offset="1" stop-color="#FFF"/>
    </radialGradient>
    <linearGradient id="c" x1=".5" x2="-.389">
      <stop offset="0" stop-color="#D9A300"/>
      <stop offset="1" stop-color="#FFF"/>
    </linearGradient>
		<style>
			.filament{
			 filter: url(#filamentglow);
			 opacity: 1;
			 stroke: #FFF;
			 stroke-width: 7;
			 fill: none;
			}
		</style>
  </defs>
  <path class="filament" d="M158.398 145.915s1.57 43.34 4.63 45.19c3.063 1.854 10.774-30.48 8.892-53.41-1.882-22.933-8.002-44.753-16.004-38.978-8.003 5.774-13.698 42.414-7.4 90.952 9.178 70.73 27.3 13.19 29.628-20.217 2.4-34.43 0-70.736-10.373-93.834s-28.735-10.86-33.627 13.413c-4.892 24.273-6.767 58.32-3.593 70.008 3.173 11.69 8.76 3.96 7.186-21.876-1.573-25.838-10.866-74.537-13.237-86.086-2.372-11.55-6.826-7.607-10.078 20.21-3.252 27.818-7.65 53.6-6.817 73.624.833 20.025 6.376 16.377 8.002-1.444 1.616-17.7-5.594-59.142-9.484-76.51-7.113-31.76-9.794-17.63-13.337 1.443-3.544 19.075-10.646 69.98-9.88 80.55 2.44 33.66 9.507 23.633 11.383 3.96 1.874-19.675-1.47-37.624-1.47-37.624S70.88 53.838 57.785 62.78c-13.095 8.943-13.81 91.74-12.124 116.778 1.686 25.04 4.248 49.156 12.153 46.195 7.706-2.887 16.802-26.138 16.894-53.413.09-27.275 1.662-44.3-8.596-63.518-3.852-7.218-13.04 0-13.715 32.717-1.128 54.657 6.67 57.992 10.16 48.123 3.488-9.87 2.37-33.203 2.37-33.203"/>
  <path d="M4 113C4 54.457 51.905 7 111 7s107 47.457 107 106c0 40.48-22.904 174.024-56.575 191.88-15.024 7.966-81.53 9.022-95.137 2.814C29.523 290.92 4 155.73 4 113z" opacity=".678" fill="url(#b)"/>
  <path fill="#D9A300" d="M45 343h134v16H45z"/>
  <path d="M91.242 347l-22.92-115.62s11.926 37.226 42.98 37.226c30.824 0 42.375-38.024 42.375-38.024L129.967 347H91.243z" stroke="#000" stroke-width="2" fill="none"/>
  <path d="M62 230.582C62 227.5 65.008 225 68.718 225s6.718 2.5 6.718 5.582-3.008 5.58-6.718 5.58S62 233.665 62 230.583zM146.565 230.582c0-3.083 3.007-5.582 6.717-5.582 3.71 0 6.718 2.5 6.718 5.582s-3.008 5.58-6.718 5.58-6.718-2.498-6.718-5.58z" fill="#040404"/>
  <g class="base">
    <path d="M67 305h90v80H67v-80z" fill="url(#c)"/>
    <path fill="#8C6900" d="M90 394h39v10H90z"/>
  </g>
</svg>
