<svg id="Layer_1" data-name="Layer 1" xmlns="http://www.w3.org/2000/svg" xmlns:xlink="http://www.w3.org/1999/xlink" viewBox="0 0 538.2 162.3">
  <defs>
    <style>
      .cls-1{fill:none;stroke:#000;stroke-width:2px;}.cls-2{fill:#040404;}.cls-3{fill:url(#linear-gradient);}.cls-4{fill:#8c6900;}.cls-5{fill:url(#linear-gradient-2);}.cls-6{fill:url(#linear-gradient-3);}.cls-7{fill:url(#linear-gradient-4);
      }
            
      .blink{
      animation: blink 4s infinite;
      }
      @keyframes blink{
      0%, 50%, 100%{ transform: scaleY(1);
      transform-origin: 100%;
      }
      51%, 55%{ transform: scaleY( 0.2)}
      56%, 60%{ transform: scaleY( 1)}
      }
    </style>
    <linearGradient id="linear-gradient" x1="1533.27" y1="541.7" x2="1533.27" y2="517.19" gradientTransform="translate(-1299.5 -182) scale(0.9 1)" gradientUnits="userSpaceOnUse">
      <stop offset="0" stop-color="#d9a300"/>
      <stop offset="1" stop-color="#fff"/>
    </linearGradient>
    <linearGradient id="linear-gradient-2" x1="281.97" y1="401.36" x2="281.97" y2="376.85" gradientTransform="translate(5.7 -51.9)" xlink:href="#linear-gradient"/>
    <linearGradient id="linear-gradient-3" x1="302.11" y1="290.01" x2="302.11" y2="265.51" gradientTransform="matrix(0.9, 0, 0, -1, 113.72, 631.51)" xlink:href="#linear-gradient"/>
    <linearGradient id="linear-gradient-4" x1="1793.45" y1="581.45" x2="1793.45" y2="556.79" gradientTransform="matrix(-0.93, -0.15, -0.17, 0.99, 2357.4, 51.84)" xlink:href="#linear-gradient"/>
  </defs>
  <title>
    alva-face-3
  </title>
  <path id="mouth" class="cls-1" d="M90.7,303.5L74.4,244.8s7.7,20.6,18.6,20.6c18.5,0,19.5-38.6,19.5-38.6l-0.8,76.8" transform="translate(-66.4 -203.8)"/>
  <ellipse id="eye-left" class="cls-2 blink" cx="46.1" cy="10" rx="6.5" ry="10"/>
  <ellipse id="eye-right" class="cls-2 blink" cx="4.9" cy="25" rx="4.9" ry="7.9"/>
  <rect class="cls-3" x="72" y="347.5" width="29.5" height="16.33" rx="8.2" ry="8.2" transform="translate(-123.4 -184.8) rotate(-9.4)"/>
  <ellipse class="cls-4" cx="77.5" cy="357.2" rx="5.4" ry="8.2" transform="translate(-123.7 -186.3) rotate(-9.4)"/>
  <path id="mouth-2" data-name="mouth" class="cls-1" d="M308.9,303.3l-14.5-73.4s11.9,37.2,43,37.2,42.4-38,42.4-38l-15.2,74.4" transform="translate(-66.4 -203.8)"/>
  <circle id="eye-left-2" data-name="eye-left" class="cls-2 blink" cx="228.5" cy="15.2" r="7.2"/>
  <circle id="eye-left-3" data-name="eye-left" class="cls-2 blink" cx="313.3" cy="15.2" r="6.5"/>
  <rect class="cls-5" x="267.6" y="337.3" width="40.1" height="16.33" rx="8.2" ry="8.2" transform="translate(-137.9 -128.6) rotate(-13.3)"/>
  <ellipse class="cls-4" cx="273.9" cy="348.7" rx="6" ry="8.2" transform="translate(-139 -131.7) rotate(-13.3)"/>
  <rect class="cls-6" x="368.7" y="337.3" width="36.3" height="16.33" rx="8.2" ry="8.2" transform="translate(602.6 576.9) rotate(-164.7)"/>
  <ellipse class="cls-4" cx="399.2" cy="348.9" rx="8.2" ry="5.4" transform="translate(-108.9 438.2) rotate(-74.7)"/>
  <path id="mouth-3" data-name="mouth" class="cls-1" d="M580.6,304.2l16.1-58.7S589.1,266,578.3,266c-18.2,0-19.2-38.6-19.2-38.6l0.8,76.8" transform="translate(-66.4 -203.8)"/>
  <ellipse id="eye-left-4" data-name="eye-left" class="cls-2 blink" cx="492.8" cy="10.7" rx="6.4" ry="10"/>
  <ellipse id="eye-right-2" data-name="eye-right" class="cls-2 blink" cx="533.4" cy="25.7" rx="4.8" ry="7.9"/>
  <path class="cls-7" d="M576.8,363.4l12.8,2.2a8,8,0,0,0,9.2-6.7h0a8.2,8.2,0,0,0-6.6-9.4l-12.8-2.2a8,8,0,0,0-9.2,6.7h0A8.2,8.2,0,0,0,576.8,363.4Z" transform="translate(-66.4 -203.8)"/>
  <path class="cls-4" d="M588.4,357.1c-0.7,4.4,1,8.5,3.9,8.9s5.8-2.7,6.5-7.2-1-8.5-3.9-8.9S589.1,352.6,588.4,357.1Z" transform="translate(-66.4 -203.8)"/>
</svg>
