<svg id="Layer_1" data-name="Layer 1" xmlns="http://www.w3.org/2000/svg" viewBox="0 0 604.9 188.9">
  <defs>
    <style>
      .cls-1,.cls-2{fill:none;stroke:#fff;stroke-width:7px;}.cls-1{stroke-linecap:round;stroke-linejoin:round;fill-rule:evenodd;}
    </style>
  </defs>
  <title>
    filament
  </title>
  <path class="cls-1" d="M22.6 121.3s-1.6 28.3-3.5 29.5-5.6-18.5-4.3-32.9 5.2-30.2 10-28.5 13.8 24.2 8.6 58.2c-6.7 45.6-28.5 10.6-29.3-9.5S2 95.9 8.1 78.6c6.6-18.9 28.9-18.7 32.1-2.7s7.6 54-1.8 55.7c-11.1 2.1-13.3-3.6-11.6-22.3s11.4-74.6 19.6-76 16.1 19.4 17.3 29.9c2.4 21.5 4.1 32.1 2.8 48.9s-11.3 14.2-12.3.3 4.7-88.1 19-87.8c28.2.5 25.6 74 24.2 84.2-4.3 31.6-21 24.1-22.4 7S79.1 66 79.1 66 91-6.7 130 4.7c24.1 7 29.8 87.7 24.7 118s-19.5 61.6-33.8 61.9c-19.1.4-35.7-27.1-34.7-53.6s.7-46.4 16.5-71.2c6.5-10.2 33.1-5.9 32.4 31.5-1.2 61.7-14.8 65.4-19.9 55.1s-2-34.3-2-34.3"/>
  <path id="filament" class="cls-2" d="M351.6 103.2s1.6 37 4.6 38.6 10.8-26.1 8.9-45.7-8-38.3-16-33.3-13.7 36.3-7.4 77.7c9.2 60.5 27.3 11.3 29.6-17.3s0-60.5-10.4-80.2-28.7-9.3-33.6 11.5-6.8 49.8-3.6 59.8 8.8 3.4 7.2-18.7-10.8-63.5-13.2-73.4-6.8-6.5-10.1 17.3-7.7 45.8-6.8 62.9 6.4 14 8-1.2-5.6-50.6-9.5-65.4c-7.1-27.1-9.8-15.1-13.3 1.2s-10.6 59.8-9.9 68.9c2.4 28.8 9.5 20.2 11.4 3.4a111.7 111.7 0 0 0-1.5-32.2s-21.9-52.5-35-44.9-13.8 78.4-12.1 99.8 4.2 42 12.2 39.5 16.8-22.3 16.9-45.7 1.7-37.9-8.6-54.3c-3.9-6.2-13 0-13.7 28-1.1 46.7 6.7 49.6 10.2 41.1s2.4-28.4 2.4-28.4"/>
  <path class="cls-1" d="M582.5 122.1s1.6 28.3 3.4 29.5 5.5-18.5 4.2-32.9-5.1-30.2-9.9-28.5-13.6 24.2-8.5 58.2c6.8 45.5 28.2 10.5 28.9-9.6s2-42.2-3.9-59.5c-6.5-18.9-28.4-18.7-31.5-2.7s-7.5 54 1.8 55.7c10.9 2.1 13-3.6 11.4-22.3s-11.2-74.6-19.2-76-15.9 19.4-17 29.9c-2.4 21.5-4.1 32.1-2.7 48.9s11.1 14.2 12.1.4-4.6-88.1-18.7-87.8c-27.8.5-25.2 74-23.8 84.2 4.2 31.6 20.7 24.1 22.1 7s-4-49.8-4-49.8-11.7-72.7-50-61.3c-23.7 7-29.3 87.7-24.3 118s19.2 61.6 33.2 61.9c18.8.4 35.1-27.1 34.1-53.6s-.7-46.4-16.2-71.2c-6.4-10.2-32.6-5.9-31.8 31.5 1.2 61.7 14.6 65.4 19.6 55.1s2-34.3 2-34.3"/>
</svg>
