<?xml version="1.0" encoding="utf-8"?>
<svg id="filament" viewBox="0 -16 604.9 226" xmlns="http://www.w3.org/2000/svg" xmlns:bx="https://www.boxy-svg.com/bx">
  <defs>
    <filter id="filamentglow" x="-100%" y="-100%" width="300%" height="300%">
      <feColorMatrix result="out" in="SourceGraphic" values="0 0 0 1 0 0 0 0 0.8235 0 0 0 0 0.302 0 0 0 0 1 0"/>
      <feMorphology result="out" in="out" operator="dilate" radius="4"/>
      <feGaussianBlur result="out" in="out" stdDeviation="5.5"/>
      <feBlend in="SourceGraphic" in2="out" result="Glow1"/>
    </filter>
    <style>
      .filament{
        fill:none;
        stroke:#fff;
        stroke-width:7px; 
        stroke-linecap:round;
      }
      .glow{
      filter: url(#filamentglow);
      animation: glow 2s infinite;
      }

}
@keyframes glow {
  0% , 100% { opacity: 0}
  15%, 85%{ opacity: 1}
}
    </style>
  </defs>
  <path class="filament glow" d="M 46.6 121.3 C 46.6 121.3 45 149.6 43.1 150.8 C 41.2 152 37.5 132.3 38.8 117.9 C 40.1 103.5 44 87.7 48.8 89.4 C 53.6 91.1 62.6 113.6 57.4 147.6 C 50.7 193.2 28.9 158.2 28.1 138.1 C 27.3 118 26 95.9 32.1 78.6 C 38.7 59.7 61 59.9 64.2 75.9 C 67.4 91.9 71.8 129.9 62.4 131.6 C 51.3 133.7 49.1 128 50.8 109.3 C 52.5 90.6 62.2 34.7 70.4 33.3 C 78.6 31.9 86.5 52.7 87.7 63.2 C 90.1 84.7 91.8 95.3 90.5 112.1 C 89.2 128.9 79.2 126.3 78.2 112.4 C 77.2 98.5 82.9 24.3 97.2 24.6 C 125.4 25.1 122.8 98.6 121.4 108.8 C 117.1 140.4 100.4 132.9 99 115.8 C 97.6 98.7 103.1 66 103.1 66 C 103.1 66 115 -6.7 154 4.7 C 178.1 11.7 183.8 92.4 178.7 122.7 C 173.6 153 159.2 184.3 144.9 184.6 C 125.8 185 109.2 157.5 110.2 131 C 111.2 104.5 110.9 84.6 126.7 59.8 C 133.2 49.6 159.8 53.9 159.1 91.3 C 157.9 153 144.3 156.7 139.2 146.4 C 134.1 136.1 137.2 112.1 137.2 112.1" bx:origin="0.5 0.5"/>
  <path class="filament glow" d="M 350.6 103.2 C 350.6 103.2 352.2 140.2 355.2 141.8 C 358.2 143.4 366 115.7 364.1 96.1 C 362.2 76.5 356.1 57.8 348.1 62.8 C 340.1 67.8 334.4 99.1 340.7 140.5 C 349.9 201 368 151.8 370.3 123.2 C 372.6 94.6 370.3 62.7 359.9 43 C 349.5 23.3 331.2 33.7 326.3 54.5 C 321.4 75.3 319.5 104.3 322.7 114.3 C 325.9 124.3 331.5 117.7 329.9 95.6 C 328.3 73.5 319.1 32.1 316.7 22.2 C 314.3 12.3 309.9 15.7 306.6 39.5 C 303.3 63.3 298.9 85.3 299.8 102.4 C 300.7 119.5 306.2 116.4 307.8 101.2 C 309.4 86 302.2 50.6 298.3 35.8 C 291.2 8.7 288.5 20.7 285 37 C 281.5 53.3 274.4 96.8 275.1 105.9 C 277.5 134.7 284.6 126.1 286.5 109.3 C 287.6 98.6 287.1 87.7 285 77.1 C 285 77.1 263.1 24.6 250 32.2 C 236.9 39.8 236.2 110.6 237.9 132 C 239.6 153.4 242.1 174 250.1 171.5 C 258.1 169 266.9 149.2 267 125.8 C 267.1 102.4 268.7 87.9 258.4 71.5 C 254.5 65.3 245.4 71.5 244.7 99.5 C 243.6 146.2 251.4 149.1 254.9 140.6 C 258.4 132.1 257.3 112.2 257.3 112.2" bx:origin="0.5 0.5"/>
  <path class="filament glow" d="M 556.5 122.1 C 556.5 122.1 558.1 150.4 559.9 151.6 C 561.7 152.8 565.4 133.1 564.1 118.7 C 562.8 104.3 559 88.5 554.2 90.2 C 549.4 91.9 540.6 114.4 545.7 148.4 C 552.5 193.9 573.9 158.9 574.6 138.8 C 575.3 118.7 576.6 96.6 570.7 79.3 C 564.2 60.4 542.3 60.6 539.2 76.6 C 536.1 92.6 531.7 130.6 541 132.3 C 551.9 134.4 554 128.7 552.4 110 C 550.8 91.3 541.2 35.4 533.2 34 C 525.2 32.6 517.3 53.4 516.2 63.9 C 513.8 85.4 512.1 96 513.5 112.8 C 514.9 129.6 524.6 127 525.6 113.2 C 526.6 99.4 521 25.1 506.9 25.4 C 479.1 25.9 481.7 99.4 483.1 109.6 C 487.3 141.2 503.8 133.7 505.2 116.6 C 506.6 99.5 501.2 66.8 501.2 66.8 C 501.2 66.8 489.5 -5.9 451.2 5.5 C 427.5 12.5 421.9 93.2 426.9 123.5 C 431.9 153.8 446.1 185.1 460.1 185.4 C 478.9 185.8 495.2 158.3 494.2 131.8 C 493.2 105.3 493.5 85.4 478 60.6 C 471.6 50.4 445.4 54.7 446.2 92.1 C 447.4 153.8 460.8 157.5 465.8 147.2 C 470.8 136.9 467.8 112.9 467.8 112.9" bx:origin="0.5 0.5"/>
  <path class="filament" d="M 46.6 121.3 C 46.6 121.3 45 149.6 43.1 150.8 C 41.2 152 37.5 132.3 38.8 117.9 C 40.1 103.5 44 87.7 48.8 89.4 C 53.6 91.1 62.6 113.6 57.4 147.6 C 50.7 193.2 28.9 158.2 28.1 138.1 C 27.3 118 26 95.9 32.1 78.6 C 38.7 59.7 61 59.9 64.2 75.9 C 67.4 91.9 71.8 129.9 62.4 131.6 C 51.3 133.7 49.1 128 50.8 109.3 C 52.5 90.6 62.2 34.7 70.4 33.3 C 78.6 31.9 86.5 52.7 87.7 63.2 C 90.1 84.7 91.8 95.3 90.5 112.1 C 89.2 128.9 79.2 126.3 78.2 112.4 C 77.2 98.5 82.9 24.3 97.2 24.6 C 125.4 25.1 122.8 98.6 121.4 108.8 C 117.1 140.4 100.4 132.9 99 115.8 C 97.6 98.7 103.1 66 103.1 66 C 103.1 66 115 -6.7 154 4.7 C 178.1 11.7 183.8 92.4 178.7 122.7 C 173.6 153 159.2 184.3 144.9 184.6 C 125.8 185 109.2 157.5 110.2 131 C 111.2 104.5 110.9 84.6 126.7 59.8 C 133.2 49.6 159.8 53.9 159.1 91.3 C 157.9 153 144.3 156.7 139.2 146.4 C 134.1 136.1 137.2 112.1 137.2 112.1" bx:origin="0.5 0.5"/>
  <path class="filament" d="M 350.6 103.2 C 350.6 103.2 352.2 140.2 355.2 141.8 C 358.2 143.4 366 115.7 364.1 96.1 C 362.2 76.5 356.1 57.8 348.1 62.8 C 340.1 67.8 334.4 99.1 340.7 140.5 C 349.9 201 368 151.8 370.3 123.2 C 372.6 94.6 370.3 62.7 359.9 43 C 349.5 23.3 331.2 33.7 326.3 54.5 C 321.4 75.3 319.5 104.3 322.7 114.3 C 325.9 124.3 331.5 117.7 329.9 95.6 C 328.3 73.5 319.1 32.1 316.7 22.2 C 314.3 12.3 309.9 15.7 306.6 39.5 C 303.3 63.3 298.9 85.3 299.8 102.4 C 300.7 119.5 306.2 116.4 307.8 101.2 C 309.4 86 302.2 50.6 298.3 35.8 C 291.2 8.7 288.5 20.7 285 37 C 281.5 53.3 274.4 96.8 275.1 105.9 C 277.5 134.7 284.6 126.1 286.5 109.3 C 287.6 98.6 287.1 87.7 285 77.1 C 285 77.1 263.1 24.6 250 32.2 C 236.9 39.8 236.2 110.6 237.9 132 C 239.6 153.4 242.1 174 250.1 171.5 C 258.1 169 266.9 149.2 267 125.8 C 267.1 102.4 268.7 87.9 258.4 71.5 C 254.5 65.3 245.4 71.5 244.7 99.5 C 243.6 146.2 251.4 149.1 254.9 140.6 C 258.4 132.1 257.3 112.2 257.3 112.2" bx:origin="0.5 0.5"/>
  <path class="filament" d="M 556.5 122.1 C 556.5 122.1 558.1 150.4 559.9 151.6 C 561.7 152.8 565.4 133.1 564.1 118.7 C 562.8 104.3 559 88.5 554.2 90.2 C 549.4 91.9 540.6 114.4 545.7 148.4 C 552.5 193.9 573.9 158.9 574.6 138.8 C 575.3 118.7 576.6 96.6 570.7 79.3 C 564.2 60.4 542.3 60.6 539.2 76.6 C 536.1 92.6 531.7 130.6 541 132.3 C 551.9 134.4 554 128.7 552.4 110 C 550.8 91.3 541.2 35.4 533.2 34 C 525.2 32.6 517.3 53.4 516.2 63.9 C 513.8 85.4 512.1 96 513.5 112.8 C 514.9 129.6 524.6 127 525.6 113.2 C 526.6 99.4 521 25.1 506.9 25.4 C 479.1 25.9 481.7 99.4 483.1 109.6 C 487.3 141.2 503.8 133.7 505.2 116.6 C 506.6 99.5 501.2 66.8 501.2 66.8 C 501.2 66.8 489.5 -5.9 451.2 5.5 C 427.5 12.5 421.9 93.2 426.9 123.5 C 431.9 153.8 446.1 185.1 460.1 185.4 C 478.9 185.8 495.2 158.3 494.2 131.8 C 493.2 105.3 493.5 85.4 478 60.6 C 471.6 50.4 445.4 54.7 446.2 92.1 C 447.4 153.8 460.8 157.5 465.8 147.2 C 470.8 136.9 467.8 112.9 467.8 112.9" bx:origin="0.5 0.5"/>
</svg>

