<!DOCTYPE svg PUBLIC "-//W3C//DTD SVG 1.1//EN" "http://www.w3.org/Graphics/SVG/1.1/DTD/svg11.dtd">
<svg id="Untitled-Page%201" viewBox="0 0 1271 255" style="background-color:#ffffff00" version="1.1" xmlns="http://www.w3.org/2000/svg" xmlns:xlink="http://www.w3.org/1999/xlink" xml:space="preserve" x="0" y="0" width="1271" height="255">
  <g id="Layer%201">
    <path fill="#5b869d" d="M0-1h1270v256H0z"/>
    <path opacity=".322" d="M-16 122s524.295-7.323 549-6c24.705 1.323 464 7 464 7l-1013-1zM24 82s524.295-7.323 549-6c24.705 1.323 464 7 464 7L24 82zM67 168s524.295-7.323 549-6c24.705 1.323 464 7 464 7L67 168zM587 206s524.295-7.323 549-6c24.705 1.323 464 7 464 7l-1013-1zM-631 206s524.295-7.323 549-6c24.705 1.323 464 7 464 7l-1013-1z" fill="#242415"/>
    <path opacity=".188" d="M-143 101l-8 37 557-19v-15l-549-3zM1031 101l-8 37 557-19v-15l-549-3z" fill="#000"/>
    <path opacity=".102" d="M323 38l-4 38 346-2V32l-342 6z" fill="#000"/>
    <path opacity=".169" d="M455 154l4 26 584 12-4-40-584 2zM719 56v36h476l-12-38-464 2z" fill="#000"/>
    <path opacity=".102" d="M487 192l-2 32H121l4-30 362-2zM1175 192l-2 32H809l4-30 362-2z" fill="#000"/>
    <path opacity=".169" d="M307 64v26L9 84l4-30 294 10z" fill="#000"/>
    <path opacity=".102" d="M837 120l4 22-386 12v-30l382-4z" fill="#000"/>
    <path opacity=".169" d="M352 138l-6 38-264-2-14-26 284-10z" fill="#000"/>
  </g>
</svg>
