<svg id="Layer_2" data-name="Layer 2" xmlns="http://www.w3.org/2000/svg" viewBox="0 0 818.5 29.4">
  <defs>
    <style>
      .cls-1{fill:#fff;stroke:#000;}
    </style>
  </defs>
  <title>
    hater-eyes
  </title>
  <path class="cls-1" d="M117.3 137.3l24.1 7.3 2.4 14.4 2.8-12.2 18.8 2.6-18 15.6zM232.9 136.7L208.8 144l-2.4 14.4-6.8-12.2-14.9 2.6 18.1 15.6zM467.7 147.5l24.1 4.2 2.4 8.2 4.8-7.6 16.8 2.1-18 8.9zM583.2 147.1l-24.1 4.2-2.4 8.2-4.8-7.6L535 154.1l18.1 8.9zM820.2 158.2l28.2-3 4.1 5.5 2.3-5.6 14.5 3.1-16.7 2.4zM935.4 158l-20.1-1.8-2.4 4.2-3.3-5.2-14.6 3 17.4 2.7z" transform="translate(-117 -136.3)"/>
</svg>
