<svg id="hater-base" data-name="Untitled-Page%201" xmlns="http://www.w3.org/2000/svg" viewBox="0 0 1028.2 345.3">
  <defs>
    <style>
      .cls-1{fill:none;stroke:#000;stroke-width:33px;}
    </style>
  </defs>
  <title>
    hater-base
  </title>
  <g id="base" data-name="base">
    <g id="frame1">
      <path id="rear" class="cls-1" d="M260.6,50L98.4,181.5s226.5,46.8,221.3,59.5S136.7,36.7,123.6,26.3,144.5,295.5,189,322.8C222.2,343.1,260.6,50,260.6,50Z" transform="translate(-9.5 5)"/>
      <path id="rear2" class="cls-1" d="M246.3,244.8L168.1,90.7s-37.4,196.5-50,191.4S312.3,128.7,322.7,115.8s-268.3,20.7-295.5,65C6.9,213.7,246.3,244.8,246.3,244.8Z" transform="translate(-9.5 5)"/>
      <path id="Ellipse" d="M104.8,172.7c0-45.3,31.2-82.1,69.7-82.1s69.7,36.7,69.7,82.1-31.2,82.1-69.7,82.1S104.8,218,104.8,172.7Z" transform="translate(-9.5 5)"/>
    </g>
    <g id="frame2">
      <path id="rear3" class="cls-1" d="M586.4,93.9L434.8,210.6s182.4-2,177.3,10.6S490.3,74,477.3,63.6,497.9,272.7,542.4,300C575.6,320.3,586.4,93.9,586.4,93.9Z" transform="translate(-9.5 5)"/>
      <path id="rear4" class="cls-1" d="M634.8,280.3L547,45.5s-85.9,270.3-98.5,265.2S629,143.3,639.4,130.3s-197,7.3-224.2,51.5C394.9,214.8,634.8,280.3,634.8,280.3Z" transform="translate(-9.5 5)"/>
      <path id="Ellipse2" d="M456.8,172.7c0-45.3,31.2-82.1,69.7-82.1s69.7,36.7,69.7,82.1-31.2,82.1-69.7,82.1S456.8,218,456.8,172.7Z" transform="translate(-9.5 5)"/>
    </g>
    <g id="frame3">
      <path id="rear5" class="cls-1" d="M960.5,102L768.2,128.9S973.6,278.5,965.6,289.5,897.2,76.6,887,63.3s-53.5,154.2-16.9,191.4C897.4,282.5,960.5,102,960.5,102Z" transform="translate(-9.5 5)"/>
      <path id="rear6" class="cls-1" d="M991.3,228.8L820.1,75.8s-34.6,210.5-45.6,202.5S990,160.1,1003.2,150.1s-203.9,0-241,36.3C734.6,213.4,991.3,228.8,991.3,228.8Z" transform="translate(-9.5 5)"/>
      <path id="Ellipse3" d="M812.9,155.8c10.9-43.9,50.1-71.9,87.4-62.5S959,145.8,948,189.7s-50.1,71.9-87.4,62.5S801.9,199.7,812.9,155.8Z" transform="translate(-9.5 5)"/>
    </g>
  </g>
</svg>
