<?xml version="1.0" standalone="no"?>
<!DOCTYPE svg PUBLIC "-//W3C//DTD SVG 1.1//EN" "http://www.w3.org/Graphics/SVG/1.1/DTD/svg11.dtd">
<svg id="hater-base" viewBox="0 0 1050 350" style="background-color:#ffffff00" version="1.1"
	xmlns="http://www.w3.org/2000/svg" xmlns:xlink="http://www.w3.org/1999/xlink" xml:space="preserve"
	x="0px" y="0px" width="1050px" height="350px"
>
	<g id="Layer%201">
		<g id="frame1">
			<path id="rear" d="M 260.606 50 L 98.3809 181.4517 C 98.3809 181.4517 324.8371 228.2834 319.697 240.9091 C 314.5435 253.5674 136.6606 36.691 123.6338 26.2831 C 110.6117 15.8791 144.4799 295.4911 188.9869 322.7774 C 222.1648 343.118 260.606 50 260.606 50 Z" stroke="#000000" stroke-width="33" fill="none"/>
			<path id="rear2" d="M 246.3474 244.7964 L 168.0698 90.6595 C 168.0698 90.6595 130.6661 287.1368 118.0829 282.0273 C 105.467 276.9046 312.3448 128.7111 322.7178 115.7619 C 333.0869 102.8176 54.4131 136.4836 27.2184 180.7252 C 6.9461 213.7051 246.3474 244.7964 246.3474 244.7964 Z" stroke="#000000" stroke-width="33" fill="none"/>
			<path id="Ellipse" d="M 104.7959 172.7162 C 104.7959 127.397 136.0029 90.6595 174.5 90.6595 C 212.9969 90.6595 244.2041 127.397 244.2041 172.7162 C 244.2041 218.0355 212.9969 254.7729 174.5 254.7729 C 136.0029 254.7729 104.7959 218.0355 104.7959 172.7162 Z" fill="#000000"/>
		</g>
		<g id="frame2">
			<path id="rear3" d="M 586.3636 93.9394 L 434.8485 210.6061 C 434.8485 210.6061 617.2614 208.5865 612.1212 221.2121 C 606.9678 233.8704 490.2996 74.0443 477.2727 63.6364 C 464.2506 53.2323 497.9172 272.7137 542.4243 300 C 575.6021 320.3406 586.3636 93.9394 586.3636 93.9394 Z" stroke="#000000" stroke-width="33" fill="none"/>
			<path id="rear4" d="M 634.8485 280.303 L 546.9697 45.4545 C 546.9697 45.4545 461.0681 315.7155 448.4849 310.606 C 435.869 305.4834 629.021 143.2522 639.3939 130.303 C 649.7631 117.3587 442.3462 137.5765 415.1515 181.8182 C 394.8792 214.7981 634.8485 280.303 634.8485 280.303 Z" stroke="#000000" stroke-width="33" fill="none"/>
			<path id="Ellipse2" d="M 456.7959 172.7162 C 456.7959 127.397 488.0029 90.6595 526.5 90.6595 C 564.9969 90.6595 596.2041 127.397 596.2041 172.7162 C 596.2041 218.0355 564.9969 254.7729 526.5 254.7729 C 488.0029 254.7729 456.7959 218.0355 456.7959 172.7162 Z" fill="#000000"/>
		</g>
		<g id="frame3">
			<path id="rear5" d="M 960.5103 101.975 L 733.7576 184.9091 C 733.7576 184.9091 973.607 278.4722 965.5757 289.4546 C 957.5237 300.4653 872.1541 59.3011 862.0329 46.0433 C 851.9154 32.7904 833.5453 241.5689 870.1212 278.8485 C 897.3868 306.6386 960.5103 101.975 960.5103 101.975 Z" stroke="#000000" stroke-width="33" fill="none"/>
			<path id="rear6" d="M 991.3333 228.8485 L 820.1212 75.8182 C 820.1212 75.8182 785.4904 286.3605 774.5209 278.3448 C 763.5229 270.3085 989.9774 160.1477 1003.1611 150.1263 C 1016.34 140.1086 813.2294 124.4197 776.1818 160.6667 C 748.5648 187.6869 991.3333 228.8485 991.3333 228.8485 Z" stroke="#000000" stroke-width="33" fill="none"/>
			<path id="Ellipse3" d="M 812.8541 155.7543 C 823.7899 111.8402 862.9175 83.8419 900.2497 93.2175 C 937.5817 102.5932 958.9795 145.7919 948.0436 189.706 C 937.1078 233.6202 897.98 261.6184 860.6481 252.2428 C 823.3159 242.8671 801.9182 199.6685 812.8541 155.7543 Z" fill="#000000"/>
		</g>
	</g>
</svg>
