
<svg id="Untitled-Page_201" data-name="Untitled-Page%201" xmlns="http://www.w3.org/2000/svg" xmlns:xlink="http://www.w3.org/1999/xlink" viewBox="0 0 1050 355">
  <defs>
    <style>
      .cls-1{filter:url(#AI_GaussianBlur_6);}.cls-2,.cls-3{fill:none;}.cls-2{stroke:#000;stroke-width:33px;}
    </style>
    <filter id="AI_GaussianBlur_6" name="AI_GaussianBlur_6">
      <feGaussianBlur stdDeviation="6" in="SourceGraphic"/>
    </filter>
  </defs>
  <title>
    hater-base
  </title>
  <g class="cls-1">
    <g id="frame1">
      <path id="rear" class="cls-2" d="M260.6 55L98.4 186.5s226.5 46.8 221.3 59.5-183-204.3-196.1-214.7 20.9 269.2 65.4 296.5C222.2 348.1 260.6 55 260.6 55z"/>
      <path id="rear2" class="cls-2" d="M246.3 249.8L168.1 95.7s-37.4 196.5-50 191.4 194.2-153.4 204.6-166.3-268.3 20.7-295.5 65c-20.3 32.9 219.1 64 219.1 64z"/>
      <path id="Ellipse" d="M104.8 177.7c0-45.3 31.2-82.1 69.7-82.1s69.7 36.7 69.7 82.1-31.2 82.1-69.7 82.1-69.7-36.8-69.7-82.1z"/>
    </g>
    <g id="frame2">
      <path id="rear3" class="cls-2" d="M586.4 98.9L434.8 215.6s182.4-2 177.3 10.6S490.3 79 477.3 68.6s20.6 209.1 65.1 236.4c33.2 20.3 44-206.1 44-206.1z"/>
      <path id="rear4" class="cls-2" d="M634.8 285.3L547 50.5s-85.9 270.3-98.5 265.2S629 148.3 639.4 135.3s-197 7.3-224.2 51.5c-20.3 33 219.6 98.5 219.6 98.5z"/>
      <path id="Ellipse2" d="M456.8 177.7c0-45.3 31.2-82.1 69.7-82.1s69.7 36.7 69.7 82.1-31.2 82.1-69.7 82.1-69.7-36.8-69.7-82.1z"/>
    </g>
    <g id="frame3">
      <path id="rear5" class="cls-2" d="M960.5 107l-192.3 26.9s205.4 149.6 197.4 160.6S897.2 81.6 887 68.3s-53.5 154.2-16.9 191.4c27.3 27.8 90.4-152.7 90.4-152.7z"/>
      <path id="rear6" class="cls-2" d="M991.3 233.8l-171.2-153s-34.6 210.5-45.6 202.5S990 165.1 1003.2 155.1s-203.9 0-241 36.3c-27.6 27 229.1 42.4 229.1 42.4z"/>
      <path id="Ellipse3" d="M812.9 160.8c10.9-43.9 50.1-71.9 87.4-62.5s58.7 52.5 47.7 96.4-50.1 71.9-87.4 62.5-58.7-52.5-47.7-96.4z"/>
    </g>
  </g>
  <path id="frame" class="cls-3" d="M0 5h1050v350H0z"/>
</svg>
