<?xml version="1.0" encoding="UTF-8" standalone="no"?>
<!-- Created with Inkscape (http://www.inkscape.org/) -->

<svg
   xmlns:dc="http://purl.org/dc/elements/1.1/"
   xmlns:cc="http://creativecommons.org/ns#"
   xmlns:rdf="http://www.w3.org/1999/02/22-rdf-syntax-ns#"
   xmlns:svg="http://www.w3.org/2000/svg"
   xmlns="http://www.w3.org/2000/svg"
   version="1.1"
   width="800"
   height="600"
   id="svg4137">
  <defs
     id="defs4139" />
  <metadata
     id="metadata4142">
    <rdf:RDF>
      <cc:Work
         rdf:about="">
        <dc:format>image/svg+xml</dc:format>
        <dc:type
           rdf:resource="http://purl.org/dc/dcmitype/StillImage" />
        <dc:title></dc:title>
      </cc:Work>
    </rdf:RDF>
  </metadata>
  <g
     transform="translate(0,-452.36218)"
     id="layer1">
    <rect
       width="805.87421"
       height="600.8222"
       x="2.7647922"
       y="453.96399"
       id="rect3868"
       style="fill:#e6e6e6;stroke:none;display:inline" />
    <g
       transform="translate(6.3462357,0.14815)"
       id="g3870"
       style="display:inline">
      <path
         d="M 370.20357,5.2467243 347.44515,153.93504 432.40991,166.07287 456.68555,-0.82218671 z"
         transform="translate(0,452.36218)"
         id="path3856"
         style="fill:#cce8a4;fill-opacity:1;stroke:none" />
      <path
         d="m 550.75367,235.86534 98.6198,12.13782 -16.6895,141.10218 -103.17149,-15.17227 z"
         transform="translate(0,452.36218)"
         id="path3858"
         style="fill:#cce8a4;fill-opacity:1;stroke:none" />
      <path
         d="m 714.61427,257.10653 -3.03446,22.75842 48.55129,7.58613 1.51723,-24.27564 z"
         transform="translate(0,452.36218)"
         id="path3860"
         style="fill:#cce8a4;fill-opacity:1;stroke:none" />
      <path
         d="m 766.20001,293.52 -3.03445,25.79287 19.72396,3.03445 3.03445,-27.3101 z"
         transform="translate(0,452.36218)"
         id="path3862"
         style="fill:#cce8a4;fill-opacity:1;stroke:none" />
      <path
         d="m 526.47803,301.10613 -9.10337,71.30971 -40.96515,-4.55168 -15.17228,-42.48238 z"
         transform="translate(0,452.36218)"
         id="path3864"
         style="fill:#cce8a4;fill-opacity:1;stroke:none" />
      <path
         d="m 643.30456,404.27762 -16.6895,15.17228 -4.55168,48.55129 -63.72357,-10.6206 c 0,0 63.72357,56.13743 104.68871,77.37862 40.96515,21.24119 106.20595,45.51683 106.20595,45.51683 l 9.10336,-97.10258 -40.96515,-4.55168 9.10337,-57.65465 c 0,0 -31.86178,-9.10337 -54.6202,-12.13783 -22.75841,-3.03445 -48.55129,-4.55168 -48.55129,-4.55168 z"
         transform="translate(0,452.36218)"
         id="path3866"
         style="fill:#cce8a4;fill-opacity:1;stroke:none" />
    </g>
    <path
       d="m 2.7648057,1035.1756 26.7199703,1.0688 88.710294,-45.95835 47.02714,-37.40796 135.73743,-30.99516 105.81106,-7.48159 c 0,0 34.20156,2.1376 51.30234,18.16958 17.10078,16.03198 75.8847,94.05428 75.8847,94.05428 l 16.03198,25.6512 -28.85756,0 c 0,0 -52.37113,-95.12311 -82.2975,-107.9487 -29.92636,-12.82558 -92.98548,-4.27519 -92.98548,-4.27519 0,0 -115.43025,9.61919 -152.83821,32.06396 -37.40795,22.44477 -131.462234,84.43513 -131.462234,84.43513 l -58.7839303,0 z"
       id="path3019"
       style="fill:#7aafe8;fill-opacity:1;stroke:none;display:inline" />
    <path
       d="m 2.7648057,1037.3318 0,4.2752"
       id="path3011"
       style="fill:none;stroke:#d0bdbd;stroke-width:4;stroke-linecap:butt;stroke-linejoin:miter;stroke-miterlimit:4;stroke-opacity:1;stroke-dasharray:none;display:inline" />
    <path
       d="M 386.46353,622.63785 -21.817564,771.20087 54.067136,982.823 478.38021,827.8472 404.63311,631.18824 z"
       id="path3816"
       style="fill:none;stroke:#d0bdbd;stroke-width:4;stroke-linecap:butt;stroke-linejoin:miter;stroke-miterlimit:4;stroke-opacity:1;stroke-dasharray:none;display:inline" />
    <path
       d="M 418.52749,669.66499 -3.6479843,824.6408"
       id="path3818"
       style="fill:none;stroke:#d0bdbd;stroke-width:4;stroke-linecap:butt;stroke-linejoin:miter;stroke-miterlimit:4;stroke-opacity:1;stroke-dasharray:none;display:inline" />
    <path
       d="M 14.521586,875.94313 438.83466,723.10493"
       id="path3820"
       style="fill:none;stroke:#d0bdbd;stroke-width:4;stroke-linecap:butt;stroke-linejoin:miter;stroke-miterlimit:4;stroke-opacity:1;stroke-dasharray:none;display:inline" />
    <path
       d="M 34.828766,929.38307 459.14184,775.47606"
       id="path3822"
       style="fill:none;stroke:#d0bdbd;stroke-width:4;stroke-linecap:butt;stroke-linejoin:miter;stroke-miterlimit:4;stroke-opacity:1;stroke-dasharray:none;display:inline" />
    <path
       d="M 82.924706,731.65532 160.94701,942.20865"
       id="path3824"
       style="fill:none;stroke:#d0bdbd;stroke-width:4;stroke-linecap:butt;stroke-linejoin:miter;stroke-miterlimit:4;stroke-opacity:1;stroke-dasharray:none;display:inline" />
    <path
       d="m 136.36464,712.41694 76.95351,211.62213"
       id="path3826"
       style="fill:none;stroke:#d0bdbd;stroke-width:4;stroke-linecap:butt;stroke-linejoin:miter;stroke-miterlimit:4;stroke-opacity:1;stroke-dasharray:none;display:inline" />
    <path
       d="m 188.73578,694.24736 75.8847,211.62214 0,0 0,0"
       id="path3828"
       style="fill:none;stroke:#d0bdbd;stroke-width:4;stroke-linecap:butt;stroke-linejoin:miter;stroke-miterlimit:4;stroke-opacity:1;stroke-dasharray:none;display:inline" />
    <path
       d="M 240.03811,675.94019 382.18833,1057.5014"
       id="path3830"
       style="fill:none;stroke:#d0bdbd;stroke-width:4;stroke-linecap:butt;stroke-linejoin:miter;stroke-miterlimit:4;stroke-opacity:1;stroke-dasharray:none;display:inline" />
    <path
       d="m 293.47805,654.70181 76.9535,212.69094"
       id="path3832"
       style="fill:none;stroke:#d0bdbd;stroke-width:4;stroke-linecap:butt;stroke-linejoin:miter;stroke-miterlimit:4;stroke-opacity:1;stroke-dasharray:none;display:inline" />
    <path
       d="m 345.84918,636.53224 78.0223,210.55333 c 0,0 11.75679,25.65117 25.65117,34.20156 13.89438,8.55039 43.82075,19.23837 49.16474,40.61435 5.34399,21.37597 -3.49746,40.23482 13.60379,67.33431 16.53728,26.20581 35.19709,47.53761 35.19709,47.53761"
       id="path3834"
       style="fill:none;stroke:#d0bdbd;stroke-width:4;stroke-linecap:butt;stroke-linejoin:miter;stroke-miterlimit:4;stroke-opacity:1;stroke-dasharray:none;display:inline" />
    <path
       d="m 438.83466,640.80743 -7.48159,59.85273"
       id="path3836"
       style="fill:none;stroke:#d0bdbd;stroke-width:4;stroke-linecap:butt;stroke-linejoin:miter;stroke-miterlimit:4;stroke-opacity:1;stroke-dasharray:none;display:inline" />
    <path
       d="m 419.59629,669.66499 16.03198,-3.20639 373.01072,52.37113"
       id="path3838"
       style="fill:none;stroke:#d0bdbd;stroke-width:4;stroke-linecap:butt;stroke-linejoin:miter;stroke-miterlimit:4;stroke-opacity:1;stroke-dasharray:none;display:inline" />
    <path
       d="m 641.90639,648.28902 26.72,-193.45255"
       id="path3840"
       style="fill:none;stroke:#d0bdbd;stroke-width:4;stroke-linecap:butt;stroke-linejoin:miter;stroke-miterlimit:4;stroke-opacity:1;stroke-dasharray:none;display:inline" />
    <path
       d="M 501.6457,847.36976 530.06614,641.45548"
       id="path3842"
       style="fill:none;stroke:#d0bdbd;stroke-width:4;stroke-linecap:butt;stroke-linejoin:miter;stroke-miterlimit:4;stroke-opacity:1;stroke-dasharray:none;display:inline" />
    <path
       d="m 453.79784,563.85393 230.86055,30.99516 30.9951,2.1376 92.9855,10.68798"
       id="path3844"
       style="fill:none;stroke:#d0bdbd;stroke-width:4;stroke-linecap:butt;stroke-linejoin:miter;stroke-miterlimit:4;stroke-opacity:1;stroke-dasharray:none;display:inline" />
    <path
       d="m 664.35119,671.80259 -22.4448,171.00779 c 0,0 -2.6732,23.70812 -14.1874,22.56606 -9.6311,-0.95529 -142.92598,-20.42847 -142.92598,-20.42847 l -39.54555,-5.34399"
       id="path3846"
       style="fill:none;stroke:#d0bdbd;stroke-width:4;stroke-linecap:butt;stroke-linejoin:miter;stroke-miterlimit:4;stroke-opacity:1;stroke-dasharray:none;display:inline" />
    <path
       d="m 455.93544,767.99447 33.13276,-65.19672 6.41279,-53.43993"
       id="path3848"
       style="fill:none;stroke:#d0bdbd;stroke-width:4;stroke-linecap:butt;stroke-linejoin:miter;stroke-miterlimit:4;stroke-opacity:1;stroke-dasharray:none;display:inline" />
    <path
       d="m 723.13509,538.20276 85.5039,10.68799"
       id="path3850"
       style="fill:none;stroke:#d0bdbd;stroke-width:4;stroke-linecap:butt;stroke-linejoin:miter;stroke-miterlimit:4;stroke-opacity:1;stroke-dasharray:none;display:inline" />
    <path
       d="m 730.51659,482.43765 -64.8615,-8.34475"
       id="path3852"
       style="fill:none;stroke:#d0bdbd;stroke-width:4;stroke-linecap:butt;stroke-linejoin:miter;stroke-miterlimit:4;stroke-opacity:1;stroke-dasharray:none;display:inline" />
    <path
       d="m 711.17189,479.7825 -14.0343,115.68862 -8.7241,60.3098"
       id="path3854"
       style="fill:none;stroke:#d0bdbd;stroke-width:4;stroke-linecap:butt;stroke-linejoin:miter;stroke-miterlimit:4;stroke-opacity:1;stroke-dasharray:none;display:inline" />
    <path
       d="m 735.37419,452.44675 -27.3101,206.34297"
       id="path3992"
       style="fill:none;stroke:#d0bdbd;stroke-width:4;stroke-linecap:butt;stroke-linejoin:miter;stroke-miterlimit:4;stroke-opacity:1;stroke-dasharray:none;display:inline" />
    <g
       transform="translate(4.9024057,2.81091)"
       id="g3807"
       style="stroke-width:7.5;stroke-miterlimit:4;stroke-dasharray:none;display:inline">
      <path
         d="m -2.1375973,110.49022 805.8741873,111.15506 0,10.68798 -395.4555,-52.37113 -42.75195,-19.23838 z"
         transform="translate(0,452.36218)"
         id="path3021"
         style="fill:none;stroke:#e9bc1c;stroke-width:7.5;stroke-linecap:butt;stroke-linejoin:miter;stroke-miterlimit:4;stroke-opacity:1;stroke-dasharray:none" />
      <path
         d="M 437.13865,623.63632 460.65222,453.69734 z"
         id="path3023"
         style="fill:none;stroke:#e9bc1c;stroke-width:7.5;stroke-linecap:butt;stroke-linejoin:miter;stroke-miterlimit:4;stroke-opacity:1;stroke-dasharray:none" />
      <path
         d="m 548.29371,198.13171 -23.51357,179.55817 269.33726,37.40795 0,0 -22.44477,183.83337 0,-1.0688"
         transform="translate(0,452.36218)"
         id="path3027"
         style="fill:none;stroke:#e9bc1c;stroke-width:7.5;stroke-linecap:butt;stroke-linejoin:miter;stroke-miterlimit:4;stroke-opacity:1;stroke-dasharray:none" />
      <path
         d="m 560.05049,383.03387 -7.48159,73.74711 c 0,0 57.71513,44.88954 84.4351,65.19672 26.71996,20.30717 82.29749,51.30233 100.46707,55.57753 18.16958,4.27519 35.27036,6.41279 35.27036,6.41279"
         transform="translate(0,452.36218)"
         id="path3031"
         style="fill:none;stroke:#e9bc1c;stroke-width:7.5;stroke-linecap:butt;stroke-linejoin:miter;stroke-miterlimit:4;stroke-opacity:1;stroke-dasharray:none" />
      <path
         d="m 794.1174,414.02903 9.61919,-72.6783"
         transform="translate(0,452.36218)"
         id="path3033"
         style="fill:none;stroke:#e9bc1c;stroke-width:7.5;stroke-linecap:butt;stroke-linejoin:miter;stroke-miterlimit:4;stroke-opacity:1;stroke-dasharray:none" />
      <path
         d="m 69.471912,120.1094 -10.687986,70.54072 -60.9215233,20.30717 0,13.89438 86.5726913,230.86051 30.995156,89.77909 5.344,52.37113"
         transform="translate(0,452.36218)"
         id="path3035"
         style="fill:none;stroke:#e9bc1c;stroke-width:7.5;stroke-linecap:butt;stroke-linejoin:miter;stroke-miterlimit:4;stroke-opacity:1;stroke-dasharray:none" />
      <path
         d="m 617.76562,601.0688 c 0,0 -55.57753,-14.96318 -66.26551,-14.96318 -10.68799,0 -54.50874,-6.41279 -54.50874,-6.41279 l -39.54555,-34.20156 c 0,0 -84.43509,-33.13276 -111.15506,-29.92636 -26.71996,3.20639 -92.98548,45.95834 -103.67347,54.50873 C 231.92931,578.62403 213.75973,600 213.75973,600 l 0,0 -2.1376,0"
         transform="translate(0,452.36218)"
         id="path3037"
         style="fill:none;stroke:#e9bc1c;stroke-width:7.5;stroke-linecap:butt;stroke-linejoin:miter;stroke-miterlimit:4;stroke-opacity:1;stroke-dasharray:none" />
    </g>
    <text
       x="147.50481"
       y="810.4245"
       id="text4020"
       xml:space="preserve"
       style="font-size:32px;font-style:normal;font-weight:normal;line-height:125%;letter-spacing:0px;word-spacing:0px;fill:#000000;fill-opacity:1;stroke:none;display:inline;font-family:Sans"><tspan
         x="147.50481"
         y="810.4245"
         id="tspan4022">Melbourne</tspan></text>
    <text
       x="634.98505"
       y="519.61829"
       id="text4020-0"
       xml:space="preserve"
       style="font-size:40px;font-style:normal;font-weight:normal;line-height:125%;letter-spacing:0px;word-spacing:0px;fill:#000000;fill-opacity:1;stroke:none;display:inline;font-family:Sans"><tspan
         x="634.98505"
         y="519.61829"
         id="tspan4022-5"
         style="font-size:20px">Collingwood</tspan></text>
    <rect
       width="268.9631"
       height="56.720108"
       x="445.85553"
       y="917.20642"
       id="rect4123"
       style="fill:#ffffff;fill-opacity:1;stroke:none" />
    <path
       d="m 460.49297,944.8368 0,18.00275 240.60302,0 0.033,-18.00275"
       id="path4127"
       style="fill:none;stroke:#000000;stroke-width:1px;stroke-linecap:butt;stroke-linejoin:miter;stroke-opacity:1" />
    <text
       x="553.82849"
       y="952.10107"
       id="text4129"
       xml:space="preserve"
       style="font-size:20px;font-style:normal;font-weight:normal;line-height:125%;letter-spacing:0px;word-spacing:0px;fill:#000000;fill-opacity:1;stroke:none;font-family:Sans"><tspan
         x="553.82849"
         y="952.10107"
         id="tspan4131">1 km</tspan></text>
  </g>
</svg>
