<?xml version="1.0" encoding="UTF-8" standalone="no"?>
<!-- Created with Inkscape (http://www.inkscape.org/) -->

<svg
   xmlns:dc="http://purl.org/dc/elements/1.1/"
   xmlns:cc="http://creativecommons.org/ns#"
   xmlns:rdf="http://www.w3.org/1999/02/22-rdf-syntax-ns#"
   xmlns:svg="http://www.w3.org/2000/svg"
   xmlns="http://www.w3.org/2000/svg"
   xmlns:sodipodi="http://sodipodi.sourceforge.net/DTD/sodipodi-0.dtd"
   xmlns:inkscape="http://www.inkscape.org/namespaces/inkscape"
   id="svg2"
   version="1.1"
   inkscape:version="0.48.2 r9819"
   width="1488.1875"
   height="1052.3625"
   xml:space="preserve"
   sodipodi:docname="Sitepoint-logo-peg.svg"><metadata
     id="metadata8"><rdf:RDF><cc:Work
         rdf:about=""><dc:format>image/svg+xml</dc:format><dc:type
           rdf:resource="http://purl.org/dc/dcmitype/StillImage" /><dc:title></dc:title></cc:Work></rdf:RDF></metadata><defs
     id="defs6"><clipPath
       clipPathUnits="userSpaceOnUse"
       id="clipPath18"><path
         d="m 0,841.89 1190.55,0 L 1190.55,0 0,0 0,841.89 z"
         id="path20" /></clipPath></defs><sodipodi:namedview
     pagecolor="#ffffff"
     bordercolor="#666666"
     borderopacity="1"
     objecttolerance="10"
     gridtolerance="10"
     guidetolerance="10"
     inkscape:pageopacity="0"
     inkscape:pageshadow="2"
     inkscape:window-width="1287"
     inkscape:window-height="839"
     id="namedview4"
     showgrid="false"
     showguides="true"
     inkscape:guide-bbox="true"
     inkscape:zoom="0.15857387"
     inkscape:cx="-386.01198"
     inkscape:cy="392.58928"
     inkscape:window-x="80"
     inkscape:window-y="24"
     inkscape:window-maximized="0"
     inkscape:current-layer="layer2"><sodipodi:guide
       orientation="1,0"
       position="-486.0488,998.85259"
       id="guide3145" /></sodipodi:namedview><g
     id="g10"
     inkscape:groupmode="layer"
     inkscape:label="logotype"
     transform="matrix(1.25,0,0,-1.25,0,1052.3625)"><g
       id="g3199"
       transform="matrix(0.72110994,0,0,0.72110994,242.54943,161.26847)"><g
         style="fill:#000000"
         transform="translate(363.9336,396.1338)"
         id="g22"><path
           inkscape:connector-curvature="0"
           id="path24"
           style="fill:#000000;fill-opacity:1;fill-rule:nonzero;stroke:none"
           d="m 0,0 c 1.551,-2.442 3.587,-4.384 6.106,-5.82 2.521,-1.444 5.367,-2.475 8.537,-3.095 3.164,-0.631 6.43,-0.941 9.793,-0.941 2.584,0 5.3,0.185 8.144,0.564 2.843,0.377 5.464,1.061 7.855,2.063 2.393,0.999 4.364,2.469 5.917,4.41 1.549,1.938 2.33,4.409 2.33,7.416 0,4.131 -1.623,7.257 -4.85,9.385 -3.236,2.122 -7.271,3.848 -12.125,5.164 -4.848,1.312 -10.118,2.498 -15.806,3.563 -5.69,1.064 -10.957,2.566 -15.807,4.507 -4.848,1.938 -8.889,4.659 -12.121,8.165 -3.23,3.501 -4.846,8.383 -4.846,14.642 0,4.879 1.128,9.069 3.391,12.575 2.261,3.502 5.172,6.35 8.728,8.543 3.554,2.188 7.566,3.815 12.025,4.878 4.459,1.065 8.89,1.596 13.284,1.596 5.692,0 10.928,-0.469 15.713,-1.408 4.783,-0.937 9.016,-2.567 12.702,-4.881 3.685,-2.312 6.624,-5.44 8.825,-9.382 2.197,-3.944 3.49,-8.857 3.875,-14.74 l -16.482,0 c -0.262,3.129 -1.1,5.729 -2.521,7.791 -1.426,2.065 -3.236,3.721 -5.43,4.978 -2.2,1.248 -4.627,2.156 -7.276,2.719 -2.648,0.567 -5.33,0.843 -8.046,0.843 -2.458,0 -4.947,-0.185 -7.466,-0.561 -2.52,-0.376 -4.817,-1.03 -6.886,-1.973 -2.072,-0.936 -3.75,-2.185 -5.042,-3.75 -1.293,-1.571 -1.942,-3.6 -1.942,-6.099 0,-2.756 1,-5.044 3.008,-6.855 2.002,-1.815 4.559,-3.317 7.658,-4.503 3.105,-1.192 6.598,-2.195 10.474,-3.003 3.881,-0.816 7.759,-1.66 11.636,-2.538 4.138,-0.878 8.176,-1.942 12.125,-3.189 3.94,-1.252 7.43,-2.907 10.473,-4.978 3.038,-2.059 5.494,-4.663 7.369,-7.789 1.873,-3.126 2.813,-7.009 2.813,-11.638 0,-5.882 -1.261,-10.761 -3.782,-14.637 -2.522,-3.882 -5.82,-7.014 -9.893,-9.389 -4.07,-2.376 -8.665,-4.035 -13.769,-4.973 -5.107,-0.937 -10.182,-1.404 -15.225,-1.404 -5.563,0 -10.86,0.557 -15.903,1.685 -5.042,1.124 -9.504,2.975 -13.382,5.537 -3.882,2.567 -6.983,5.945 -9.311,10.137 -2.328,4.193 -3.62,9.294 -3.88,15.296 l 16.487,0 C -2.396,5.409 -1.554,2.438 0,0" /></g><path
         inkscape:connector-curvature="0"
         id="path26"
         style="fill:#000000;fill-opacity:1;fill-rule:nonzero;stroke:none"
         d="m 465.754,374.45 -16.485,0 0,97.047 16.485,0 0,-97.047 z" /><g
         style="fill:#000000"
         transform="translate(534.2148,471.4971)"
         id="g28"><path
           inkscape:connector-curvature="0"
           id="path30"
           style="fill:#000000;fill-opacity:1;fill-rule:nonzero;stroke:none"
           d="m 0,0 0,-14.078 -19.976,0 0,-60.254 c 0,-1.878 0.161,-3.38 0.482,-4.503 0.32,-1.133 0.935,-2.01 1.846,-2.635 0.902,-0.627 2.166,-1.031 3.778,-1.218 1.615,-0.186 3.718,-0.281 6.306,-0.281 l 7.564,0 0,-14.078 -12.607,0 c -4.27,0 -7.921,0.281 -10.96,0.846 -3.037,0.561 -5.496,1.597 -7.369,3.095 -1.878,1.505 -3.267,3.631 -4.169,6.381 -0.908,2.754 -1.358,6.385 -1.358,10.888 l 0,61.759 -17.066,0 0,14.078 17.066,0 0,29.097 16.487,0 L -19.976,0 0,0 z" /></g><g
         style="fill:#000000"
         transform="translate(619.4502,442.9644)"
         id="g32"><path
           inkscape:connector-curvature="0"
           id="path34"
           style="fill:#000000;fill-opacity:1;fill-rule:nonzero;stroke:none"
           d="m 0,0 c -1.485,3.379 -3.489,6.289 -6.013,8.73 -2.523,2.44 -5.498,4.378 -8.92,5.82 -3.427,1.433 -7.212,2.155 -11.345,2.155 -4.272,0 -8.118,-0.722 -11.539,-2.155 -3.431,-1.442 -6.37,-3.411 -8.826,-5.914 -2.456,-2.505 -4.396,-5.415 -5.819,-8.73 -1.422,-3.314 -2.262,-6.847 -2.52,-10.601 l 57.6,0 C 2.356,-6.941 1.484,-3.378 0,0 m 3.977,-62.318 c -7.501,-5.511 -16.943,-8.257 -28.316,-8.257 -8.021,0 -14.968,1.244 -20.849,3.75 -5.887,2.502 -10.832,6.009 -14.836,10.511 -4.008,4.507 -7.016,9.885 -9.022,16.143 -2.006,6.259 -3.136,13.077 -3.392,20.466 0,7.378 1.161,14.137 3.491,20.27 2.328,6.13 5.592,11.452 9.795,15.955 4.2,4.505 9.181,8.005 14.933,10.511 5.753,2.501 12.056,3.754 18.908,3.754 8.923,0 16.324,-1.782 22.207,-5.347 5.884,-3.569 10.599,-8.106 14.16,-13.609 3.554,-5.507 6.013,-11.518 7.367,-18.021 1.358,-6.511 1.909,-12.702 1.653,-18.585 l -75.058,0 c -0.13,-4.258 0.389,-8.291 1.555,-12.107 1.159,-3.82 3.031,-7.203 5.618,-10.138 2.585,-2.945 5.884,-5.29 9.892,-7.037 4.004,-1.76 8.729,-2.628 14.158,-2.628 6.979,0 12.705,1.562 17.163,4.695 4.462,3.119 7.401,7.88 8.829,14.264 l 16.288,0 c -2.197,-10.89 -7.047,-19.087 -14.544,-24.59" /></g><g
         style="fill:#000000"
         transform="translate(732.9092,437.0542)"
         id="g36"><path
           inkscape:connector-curvature="0"
           id="path38"
           style="fill:#000000;fill-opacity:1;fill-rule:nonzero;stroke:none"
           d="m 0,0 c -1.231,4.317 -3.104,8.162 -5.627,11.546 -2.521,3.375 -5.755,6.067 -9.698,8.068 -3.943,2.001 -8.567,3.001 -13.867,3.001 -5.56,0 -10.278,-1.063 -14.159,-3.189 -3.878,-2.129 -7.047,-4.915 -9.503,-8.351 -2.456,-3.446 -4.234,-7.356 -5.334,-11.731 -1.097,-4.383 -1.648,-8.824 -1.648,-13.334 0,-4.758 0.583,-9.352 1.75,-13.796 1.162,-4.439 3.003,-8.353 5.523,-11.727 2.521,-3.38 5.784,-6.102 9.792,-8.168 4.007,-2.065 8.858,-3.096 14.551,-3.096 5.686,0 10.44,1.064 14.253,3.19 3.813,2.126 6.885,4.942 9.211,8.447 2.333,3.503 4.008,7.508 5.045,12.011 1.033,4.505 1.552,9.134 1.552,13.895 C 1.841,-8.731 1.226,-4.318 0,0 m -59.253,34.443 0,-13.142 0.389,0 c 2.715,5.381 6.982,9.293 12.801,11.734 5.819,2.443 12.218,3.66 19.201,3.66 7.757,0 14.511,-1.379 20.265,-4.13 5.755,-2.753 10.537,-6.476 14.351,-11.169 3.813,-4.692 6.693,-10.106 8.635,-16.235 1.937,-6.134 2.906,-12.64 2.906,-19.524 0,-6.881 -0.937,-13.393 -2.813,-19.52 -1.873,-6.135 -4.72,-11.484 -8.534,-16.05 -3.809,-4.568 -8.598,-8.166 -14.35,-10.794 -5.754,-2.624 -12.445,-3.938 -20.072,-3.938 -2.459,0 -5.207,0.248 -8.246,0.747 -3.036,0.498 -6.046,1.314 -9.016,2.442 -2.978,1.123 -5.79,2.653 -8.437,4.598 -2.651,1.937 -4.884,4.345 -6.691,7.224 l -0.389,0 0,-49.928 -16.485,0 0,134.025 16.485,0 z" /></g><g
         style="fill:#000000"
         transform="translate(786.043,407.2031)"
         id="g40"><path
           inkscape:connector-curvature="0"
           id="path42"
           style="fill:#000000;fill-opacity:1;fill-rule:nonzero;stroke:none"
           d="m 0,0 c 1.619,-4.569 3.843,-8.383 6.69,-11.446 2.848,-3.071 6.179,-5.418 9.996,-7.043 3.81,-1.624 7.85,-2.437 12.121,-2.437 4.263,0 8.303,0.813 12.121,2.437 3.813,1.625 7.14,3.972 9.985,7.043 2.842,3.063 5.074,6.877 6.694,11.446 1.611,4.568 2.42,9.793 2.42,15.679 0,5.88 -0.809,11.102 -2.42,15.671 -1.62,4.566 -3.852,8.416 -6.694,11.544 -2.845,3.128 -6.172,5.507 -9.985,7.137 -3.818,1.623 -7.858,2.435 -12.121,2.435 -4.271,0 -8.311,-0.812 -12.121,-2.435 C 12.869,48.401 9.538,46.022 6.69,42.894 3.843,39.766 1.619,35.916 0,31.35 -1.617,26.781 -2.424,21.559 -2.424,15.679 -2.424,9.793 -1.617,4.568 0,0 m -16.777,35.667 c 2.074,6.197 5.172,11.575 9.308,16.146 4.138,4.566 9.247,8.16 15.328,10.794 6.076,2.624 13.055,3.939 20.948,3.939 8.012,0 15.023,-1.315 21.037,-3.939 6.02,-2.634 11.084,-6.228 15.228,-10.794 4.134,-4.571 7.239,-9.949 9.313,-16.146 2.063,-6.192 3.096,-12.857 3.096,-19.988 0,-7.138 -1.033,-13.77 -3.096,-19.901 -2.074,-6.13 -5.179,-11.479 -9.313,-16.049 -4.144,-4.568 -9.208,-8.136 -15.228,-10.702 -6.014,-2.562 -13.025,-3.84 -21.037,-3.84 -7.893,0 -14.872,1.278 -20.948,3.84 -6.081,2.566 -11.19,6.134 -15.328,10.702 -4.136,4.57 -7.234,9.919 -9.308,16.049 -2.067,6.131 -3.101,12.763 -3.101,19.901 0,7.131 1.034,13.796 3.101,19.988" /></g><path
         inkscape:connector-curvature="0"
         id="path44"
         style="fill:#000000;fill-opacity:1;fill-rule:nonzero;stroke:none"
         d="m 900.379,374.45 -16.491,0 0,97.047 16.491,0 0,-97.047 z" /><g
         style="fill:#000000"
         transform="translate(941.4893,471.4971)"
         id="g46"><path
           inkscape:connector-curvature="0"
           id="path48"
           style="fill:#000000;fill-opacity:1;fill-rule:nonzero;stroke:none"
           d="m 0,0 0,-15.39 0.389,0 c 6.855,11.759 17.713,17.642 32.585,17.642 6.592,0 12.089,-0.878 16.481,-2.625 4.4,-1.756 7.955,-4.195 10.673,-7.322 2.712,-3.129 4.62,-6.855 5.722,-11.169 1.094,-4.319 1.646,-9.103 1.646,-14.357 l 0,-63.826 -16.485,0 0,65.701 c 0,6.006 -1.815,10.76 -5.434,14.266 -3.622,3.501 -8.596,5.252 -14.933,5.252 -5.039,0 -9.403,-0.745 -13.093,-2.25 -3.684,-1.505 -6.752,-3.63 -9.211,-6.383 -2.456,-2.753 -4.3,-5.977 -5.528,-9.664 -1.228,-3.695 -1.84,-7.73 -1.84,-12.109 l 0,-54.813 -16.486,0 0,97.047 L 0,0 z" /></g><g
         style="fill:#000000"
         transform="translate(1076.6689,471.4971)"
         id="g50"><path
           inkscape:connector-curvature="0"
           id="path52"
           style="fill:#000000;fill-opacity:1;fill-rule:nonzero;stroke:none"
           d="m 0,0 0,-14.078 -19.975,0 0,-60.254 c 0,-1.878 0.156,-3.38 0.486,-4.503 0.321,-1.133 0.933,-2.01 1.841,-2.635 0.904,-0.627 2.168,-1.031 3.784,-1.218 1.613,-0.186 3.714,-0.281 6.299,-0.281 l 7.565,0 0,-14.078 -12.61,0 c -4.264,0 -7.918,0.281 -10.955,0.846 -3.036,0.561 -5.498,1.597 -7.371,3.095 -1.876,1.505 -3.265,3.631 -4.167,6.381 -0.907,2.754 -1.357,6.385 -1.357,10.888 l 0,61.759 -17.072,0 0,14.078 17.072,0 0,29.097 16.485,0 L -19.975,0 0,0 z" /></g><g
         style="fill:#000000"
         transform="translate(467.1172,491.2969)"
         id="g62"><path
           inkscape:connector-curvature="0"
           id="path64"
           style="fill:#000000;fill-opacity:1;fill-rule:nonzero;stroke:none"
           d="m 0,0 c 0,-5.133 -4.303,-9.296 -9.606,-9.296 -5.305,0 -9.607,4.163 -9.607,9.296 0,5.135 4.302,9.297 9.607,9.297 C -4.303,9.297 0,5.135 0,0" /></g><g
         style="fill:#000000"
         transform="translate(901.7402,491.2969)"
         id="g66"><path
           inkscape:connector-curvature="0"
           id="path68"
           style="fill:#000000;fill-opacity:1;fill-rule:nonzero;stroke:none"
           d="m 0,0 c 0,-5.133 -4.303,-9.296 -9.606,-9.296 -5.304,0 -9.608,4.163 -9.608,9.296 0,5.135 4.304,9.297 9.608,9.297 C -4.303,9.297 0,5.135 0,0" /></g></g></g><g
     inkscape:groupmode="layer"
     id="layer2"
     inkscape:label="peg"
     style="opacity:1"><path
       style="fill:#0b2228;fill-opacity:1"
       d="m 616.18381,697.29658 c -106.10442,0 -224.27587,22.19563 -263.95155,49.57239 -12.6649,8.73895 -15.78389,16.94472 -10.73139,24.07406 l -2.21192,0 65.48086,72.23208 255.13932,-67.72595 c 33.83702,-8.07732 61.13403,-17.9359 76.56024,-28.58019 39.67569,-27.37676 -14.18113,-49.57239 -120.28556,-49.57239 z"
       id="path3143-1"
       inkscape:connector-curvature="0" /><path
       style="fill:#5599ff;fill-opacity:1"
       d="m 404.87861,272.47905 c -106.10442,0 -192.10893,86.02374 -192.10893,192.12817 0,33.86959 8.77321,65.67277 24.15787,93.30401 l -2.21191,0 170.16297,279.95049 156.9877,-262.48605 c 22.13098,-31.30533 35.14048,-69.51433 35.14048,-110.76845 0,-106.10443 -86.02376,-192.12817 -192.12818,-192.12817 z"
       id="path3143"
       inkscape:connector-curvature="0" /><path
       sodipodi:type="arc"
       style="fill:#f9f9f9;fill-opacity:1"
       id="path3150"
       sodipodi:cx="-394.63596"
       sodipodi:cy="153.84114"
       sodipodi:rx="193.9736"
       sodipodi:ry="193.9736"
       d="m -200.66235,153.84114 a 193.9736,193.9736 0 1 1 -387.94721,0 193.9736,193.9736 0 1 1 387.94721,0 z"
       transform="matrix(0.78741888,0,0,0.78741888,714.72421,336.46611)" /></g><g
     inkscape:groupmode="layer"
     id="layer1"
     inkscape:label="logomark"><g
       id="g54"
       transform="matrix(0.90138743,0,0,-0.90138743,327.79707,448.495)"
       style="fill:#2c5aa0"><path
         d="m 0,0 15.203,-14.756 48.078,-44.879 20.715,19.999 c 1.897,2.603 1.771,6.143 -0.399,8.615 l -18.923,16.594 0.067,0.01 -20.398,19.781 c -2.386,2.713 -2.329,6.742 0.202,9.37 L 99.43,67.743 74.491,91.942 15.268,34.74 0.022,20.024 C -5.7,14.499 -5.709,5.529 0,0"
         style="fill:#3667b5;fill-opacity:1;fill-rule:nonzero;stroke:none"
         id="path56"
         inkscape:connector-curvature="0" /></g><g
       id="g58"
       transform="matrix(0.90138743,0,0,-0.90138743,475.35879,471.61018)"
       style="fill:#d45500"><path
         d="m 0,0 -15.203,14.754 -48.077,44.881 -20.716,-20 c -1.897,-2.603 -1.771,-6.142 0.399,-8.614 l 18.923,-16.596 -0.068,-0.009 20.399,-19.781 c 2.387,-2.713 2.329,-6.742 -0.203,-9.37 l -54.884,-53.007 24.94,-24.199 59.223,57.2 15.244,14.717 C 5.699,-14.5 5.709,-5.528 0,0"
         style="fill:#f96d25;fill-opacity:1;fill-rule:nonzero;stroke:none"
         id="path60"
         inkscape:connector-curvature="0" /></g></g></svg>